<?xml version="1.0" encoding="iso-8859-1"?>
<!-- Generator: Adobe Illustrator 19.0.0, SVG Export Plug-In . SVG Version: 6.00 Build 0)  -->
<svg version="1.1" id="Capa_1" xmlns="http://www.w3.org/2000/svg" xmlns:xlink="http://www.w3.org/1999/xlink" x="0px" y="0px"
	 viewBox="0 0 511.999 511.999" style="enable-background:new 0 0 511.999 511.999;" xml:space="preserve">
<g>
	<g>
		<path d="M488.213,85.966h-272.89c-9.719,0-19.126,2.856-27.157,8.224L5.676,214.175C2.122,216.55,0,220.521,0,224.796v62.639
			c0,7.045,5.731,12.776,12.776,12.776H36.64c67.939,0,128.52,46.633,144.049,110.885c2.126,8.794,9.895,14.936,18.895,14.936
			h288.628c13.117,0,23.787-10.671,23.787-23.787v-292.49C512,96.638,501.329,85.966,488.213,85.966z M488.213,411.004H199.584
			c-2.035,0-3.797-1.414-4.286-3.439c-1.581-6.541-3.586-12.914-5.979-19.099h156.725c4.15,0,7.515-3.365,7.515-7.515
			c0-4.15-3.365-7.515-7.515-7.515H182.556c-27.184-52.708-83.762-88.254-145.916-88.254h-21.61v-59.171l181.44-119.295
			c5.598-3.742,12.118-5.721,18.853-5.721h272.89c4.829,0,8.758,3.929,8.758,8.758v292.492h0
			C496.971,407.076,493.042,411.004,488.213,411.004z"/>
	</g>
</g>
<g>
	<g>
		<path d="M467.036,115.092H215.323c-3.936,0-7.745,1.156-10.967,3.309L34.016,230.263c-3.063,2.048-4.891,5.47-4.891,9.154v21.823
			c0,6.073,4.941,11.013,11.012,11.013h120.676c4.15,0,7.515-3.365,7.515-7.515s-3.365-7.515-7.515-7.515H44.154v-15.638
			L212.655,130.93c0.793-0.529,1.714-0.81,2.667-0.81h251.714c0.446,0,0.81,0.363,0.81,0.81v125.484c0,0.446-0.363,0.81-0.81,0.81
			H190.873c-4.15,0-7.515,3.365-7.515,7.515c0,4.15,3.365,7.515,7.515,7.515h276.163c8.733,0,15.839-7.105,15.839-15.839V130.93
			C482.875,122.197,475.769,115.092,467.036,115.092z"/>
	</g>
</g>
<g>
	<g>
		<path d="M455.555,373.724h-74.561c-4.15,0-7.515,3.365-7.515,7.515s3.365,7.515,7.515,7.515h74.561
			c4.15,0,7.515-3.365,7.515-7.515S459.705,373.724,455.555,373.724z"/>
	</g>
</g>
<g>
	<g>
		<path d="M450.204,286.349h-58.035c-7.094,0-12.865,5.771-12.865,12.865v19.589c0,7.094,5.771,12.865,12.865,12.865h58.035
			c7.094,0,12.865-5.771,12.865-12.865v-19.589C463.069,292.12,457.298,286.349,450.204,286.349z M420.018,316.639h-25.685v-15.261
			h25.685V316.639z M448.04,316.639h-12.991v-15.261h12.991V316.639z"/>
	</g>
</g>
<g>
</g>
<g>
</g>
<g>
</g>
<g>
</g>
<g>
</g>
<g>
</g>
<g>
</g>
<g>
</g>
<g>
</g>
<g>
</g>
<g>
</g>
<g>
</g>
<g>
</g>
<g>
</g>
<g>
</g>
</svg>
