<?xml version="1.0" encoding="UTF-8" standalone="no"?>
<svg
   xmlns:dc="http://purl.org/dc/elements/1.1/"
   xmlns:cc="http://creativecommons.org/ns#"
   xmlns:rdf="http://www.w3.org/1999/02/22-rdf-syntax-ns#"
   xmlns:svg="http://www.w3.org/2000/svg"
   xmlns="http://www.w3.org/2000/svg"
   xmlns:sodipodi="http://sodipodi.sourceforge.net/DTD/sodipodi-0.dtd"
   xmlns:inkscape="http://www.inkscape.org/namespaces/inkscape"
   id="Layer_1"
   data-name="Layer 1"
   viewBox="0 0 512 512"
   width="512"
   height="512"
   version="1.1"
   sodipodi:docname="schedule.svg"
   inkscape:version="1.0.2 (e86c870879, 2021-01-15, custom)">
  <metadata
     id="metadata55">
    <rdf:RDF>
      <cc:Work
         rdf:about="">
        <dc:format>image/svg+xml</dc:format>
        <dc:type
           rdf:resource="http://purl.org/dc/dcmitype/StillImage" />
      </cc:Work>
    </rdf:RDF>
  </metadata>
  <defs
     id="defs53" />
  <sodipodi:namedview
     pagecolor="#ffffff"
     bordercolor="#666666"
     borderopacity="1"
     objecttolerance="10"
     gridtolerance="10"
     guidetolerance="10"
     inkscape:pageopacity="0"
     inkscape:pageshadow="2"
     inkscape:window-width="2044"
     inkscape:window-height="1259"
     id="namedview51"
     showgrid="false"
     inkscape:zoom="1.96875"
     inkscape:cx="256"
     inkscape:cy="256"
     inkscape:window-x="147"
     inkscape:window-y="45"
     inkscape:window-maximized="0"
     inkscape:current-layer="Layer_1" />
  <path
     d="M282.2,404h95.791a6,6,0,0,0,0-12H282.2a6,6,0,1,0,0,12Z"
     id="path2"
     style="fill:#9f7aea;fill-opacity:1" />
  <path
     d="M282.2,388h95.791a6,6,0,0,0,0-12H282.2a6,6,0,1,0,0,12Z"
     id="path4"
     style="fill:#9f7aea;fill-opacity:1" />
  <path
     d="M398.335,418h32.993a21.5,21.5,0,0,0,0-43H404.3a5.987,5.987,0,0,0-5.891,4.848l-5.966,30.858a6.168,6.168,0,0,0,1.263,5.035A6.077,6.077,0,0,0,398.335,418Zm10.917-31h22.076a9.5,9.5,0,0,1,0,19H405.605Z"
     id="path6"
     style="fill:#9f7aea;fill-opacity:1" />
  <path
     d="M228.854,418h32.994a6.122,6.122,0,0,0,5.89-7.261l-5.966-30.871a6,6,0,0,0-5.89-4.868H228.854a21.5,21.5,0,0,0,0,43Zm0-31h22.077l3.646,19H228.854a9.5,9.5,0,0,1,0-19Z"
     id="path8"
     style="fill:#9f7aea;fill-opacity:1" />
  <polygon
     points="108.438 10 108.442 10 108.447 10 108.438 10"
     id="polygon10" />
  <path
     d="M152.079,154.193a16.594,16.594,0,1,0,16.577,16.593A16.6,16.6,0,0,0,152.079,154.193Zm0,21.187a4.594,4.594,0,1,1,4.577-4.594A4.591,4.591,0,0,1,152.079,175.38Z"
     id="path12"
     style="fill:#9f7aea;fill-opacity:1" />
  <path
     d="M211.577,187.38A16.594,16.594,0,1,0,195,170.786,16.6,16.6,0,0,0,211.577,187.38Zm0-21.187A4.594,4.594,0,1,1,207,170.786,4.59,4.59,0,0,1,211.577,166.193Z"
     id="path14"
     style="fill:#9f7aea;fill-opacity:1" />
  <path
     d="M271.075,187.38A16.594,16.594,0,1,0,254.5,170.786,16.6,16.6,0,0,0,271.075,187.38Zm0-21.187a4.594,4.594,0,1,1-4.577,4.593A4.59,4.59,0,0,1,271.075,166.193Z"
     id="path16"
     style="fill:#9f7aea;fill-opacity:1" />
  <path
     d="M330.572,187.38A16.594,16.594,0,1,0,314,170.786,16.6,16.6,0,0,0,330.572,187.38Zm0-21.187A4.594,4.594,0,1,1,326,170.786,4.59,4.59,0,0,1,330.572,166.193Z"
     id="path18"
     style="fill:#9f7aea;fill-opacity:1" />
  <path
     d="M92.581,203.847a16.594,16.594,0,1,0,16.577,16.594A16.6,16.6,0,0,0,92.581,203.847Zm0,21.187a4.594,4.594,0,1,1,4.577-4.593A4.59,4.59,0,0,1,92.581,225.034Z"
     id="path20"
     style="fill:#9f7aea;fill-opacity:1" />
  <path
     d="M152.079,203.847a16.594,16.594,0,1,0,16.577,16.594A16.6,16.6,0,0,0,152.079,203.847Zm0,21.187a4.594,4.594,0,1,1,4.577-4.593A4.59,4.59,0,0,1,152.079,225.034Z"
     id="path22"
     style="fill:#9f7aea;fill-opacity:1" />
  <path
     d="M211.577,237.034A16.594,16.594,0,1,0,195,220.441,16.6,16.6,0,0,0,211.577,237.034Zm0-21.187A4.594,4.594,0,1,1,207,220.441,4.591,4.591,0,0,1,211.577,215.847Z"
     id="path24"
     style="fill:#9f7aea;fill-opacity:1" />
  <path
     d="M271.075,237.034A16.594,16.594,0,1,0,254.5,220.441,16.6,16.6,0,0,0,271.075,237.034Zm0-21.187a4.594,4.594,0,1,1-4.577,4.594A4.591,4.591,0,0,1,271.075,215.847Z"
     id="path26"
     style="fill:#9f7aea;fill-opacity:1" />
  <path
     d="M330.572,237.034A16.594,16.594,0,1,0,314,220.441,16.6,16.6,0,0,0,330.572,237.034Zm0-21.187A4.594,4.594,0,1,1,326,220.441,4.591,4.591,0,0,1,330.572,215.847Z"
     id="path28"
     style="fill:#9f7aea;fill-opacity:1" />
  <path
     d="M330.572,286.79A16.594,16.594,0,1,0,314,270.2,16.6,16.6,0,0,0,330.572,286.79Zm0-21.187A4.594,4.594,0,1,1,326,270.2,4.59,4.59,0,0,1,330.572,265.6Z"
     id="path30"
     style="fill:#9f7aea;fill-opacity:1" />
  <path
     d="M60,141.24a6,6,0,0,0-6,6V150a6,6,0,0,0,12,0V147.24A6,6,0,0,0,60,141.24Z"
     id="path32"
     style="fill:#9f7aea;fill-opacity:1" />
  <path
     d="M60,161.821a6,6,0,0,0-6,6v80.007a6,6,0,0,0,12,0V167.821A6,6,0,0,0,60,161.821Z"
     id="path34"
     style="fill:#9f7aea;fill-opacity:1" />
  <path
     d="M92.581,253.5A16.594,16.594,0,1,0,109.158,270.1,16.6,16.6,0,0,0,92.581,253.5Zm0,21.187a4.594,4.594,0,1,1,4.577-4.593A4.59,4.59,0,0,1,92.581,274.689Z"
     id="path36"
     style="fill:#9f7aea;fill-opacity:1" />
  <path
     d="M152.079,253.5A16.594,16.594,0,1,0,168.656,270.1,16.6,16.6,0,0,0,152.079,253.5Zm0,21.187a4.594,4.594,0,1,1,4.577-4.593A4.59,4.59,0,0,1,152.079,274.689Z"
     id="path38"
     style="fill:#9f7aea;fill-opacity:1" />
  <path
     d="M211.577,286.689A16.594,16.594,0,1,0,195,270.1,16.6,16.6,0,0,0,211.577,286.689Zm0-21.187A4.594,4.594,0,1,1,207,270.1,4.591,4.591,0,0,1,211.577,265.5Z"
     id="path40"
     style="fill:#9f7aea;fill-opacity:1" />
  <path
     d="M92.581,303.157a16.594,16.594,0,1,0,16.577,16.593A16.6,16.6,0,0,0,92.581,303.157Zm0,21.187a4.594,4.594,0,1,1,4.577-4.594A4.591,4.591,0,0,1,92.581,324.344Z"
     id="path42"
     style="fill:#9f7aea;fill-opacity:1" />
  <path
     d="M152.079,303.157a16.594,16.594,0,1,0,16.577,16.593A16.6,16.6,0,0,0,152.079,303.157Zm0,21.187a4.594,4.594,0,1,1,4.577-4.594A4.591,4.591,0,0,1,152.079,324.344Z"
     id="path44"
     style="fill:#9f7aea;fill-opacity:1" />
  <path
     d="M271.075,286.79A16.594,16.594,0,1,0,254.5,270.2,16.6,16.6,0,0,0,271.075,286.79Zm0-21.187A4.594,4.594,0,1,1,266.5,270.2,4.59,4.59,0,0,1,271.075,265.6Z"
     id="path46"
     style="fill:#9f7aea;fill-opacity:1" />
  <path
     d="M476,426.83V381.224a24.406,24.406,0,0,0-21.094-24.108l-17.353-47.578A25.3,25.3,0,0,0,413.715,293H394V85.36C394,67.556,379.051,53,361.241,53H342V37.463A27.26,27.26,0,0,0,314.812,10h0C299.667,10,287,22.32,287,37.463V53H136V37.463a27.5,27.5,0,0,0-55,0V53H61.908A32.063,32.063,0,0,0,30,85.356v271.5A31.847,31.847,0,0,0,61.914,389H188v37.83a8.851,8.851,0,0,0-6,8.164v21.445A8.472,8.472,0,0,0,190.312,465h.555l.157,22.166A14.973,14.973,0,0,0,206.042,502h.113l24.445-.163a14.923,14.923,0,0,0,10.59-4.478,14.744,14.744,0,0,0,4.323-10.576L245.358,465H418.792l.157,22.165A14.957,14.957,0,0,0,433.964,502h.115l24.445-.163a14.924,14.924,0,0,0,10.591-4.478,14.744,14.744,0,0,0,4.323-10.576L473.283,465h.67c4.634,0,8.047-3.927,8.047-8.561V434.994C482,431.035,480,427.715,476,426.83Zm-12-45.606V427H396.09l-10.929-16.2a6.179,6.179,0,0,0-4.956-2.8H279.333a6.179,6.179,0,0,0-4.956,2.8L263.448,427H200V381.224c0-6.8,5.889-12.224,12.69-12.224H451.576A12.33,12.33,0,0,1,464,381.224ZM381.563,427H277.975l4.528-7h94.532Zm32.152-122a13.29,13.29,0,0,1,12.536,8.69L442.013,357H222.253l15.761-43.31A13.29,13.29,0,0,1,250.551,305ZM299,37.463a15.5,15.5,0,0,1,31,0V78H299Zm-206,0a15.5,15.5,0,0,1,31,0V78H93ZM42,85.352A20.051,20.051,0,0,1,61.914,65H81V84.182A5.745,5.745,0,0,0,86.879,90H129.8a6.022,6.022,0,0,0,6.2-5.818V65H287V84.182C287,87.5,290.033,90,293.347,90h42.928A5.618,5.618,0,0,0,342,84.182V65h19.236C372.425,65,382,74.164,382,85.356V117H42ZM188.386,377H61.918A19.847,19.847,0,0,1,42,356.858V129H382V293H250.551a25.276,25.276,0,0,0-23.817,16.538l-17.507,47.654A24.547,24.547,0,0,0,188.386,377Zm44.258,111.975a3.009,3.009,0,0,1-2.128.882l-24.446.152a3,3,0,0,1-3.046-2.926L202.868,465h30.489l.156,21.87A2.9,2.9,0,0,1,232.644,488.975Zm227.924,0a3.007,3.007,0,0,1-2.128.882l-24.446.152a3.063,3.063,0,0,1-2.143-.874,2.8,2.8,0,0,1-.9-2.054L430.793,465h30.49l.155,21.87A2.906,2.906,0,0,1,460.568,488.975ZM470,453H194V439H470Z"
     id="path48"
     style="fill:#9f7aea;fill-opacity:1" />
</svg>
